<?xml version="1.0" encoding="utf-8"?>
<svg viewBox="3.247 58.2188 249.092 137.2171" width="249.092" height="133.2171" xmlns="http://www.w3.org/2000/svg">
  <defs>
    <radialGradient gradientUnits="userSpaceOnUse" cx="78.205" cy="131.39" r="103.046" id="gradient-0" spreadMethod="reflect" gradientTransform="matrix(1.208644, 0, 0, 1.208644, -28.339688, -26.528119)">
      <stop offset="0" style="stop-color: rgb(0% 100% 51.373%)"/>
      <stop offset="1" style="stop-color: rgb(0% 57.948% 23.98%)"/>
    </radialGradient>
  </defs>
  <path d="M 144.053 64.999 C 152.602 56.859 166.775 61.031 169.536 72.505 C 170.742 77.474 169.392 82.71 165.937 86.475 L 84.334 188.526 C 78.423 194.908 68.403 195.093 62.246 188.937 L 8.132 134.82 C -0.501 126.784 2.814 112.384 14.102 108.93 C 19.706 107.211 25.8 108.848 29.809 113.142 L 72.635 155.949 L 143.643 65.449 L 144.053 64.999 Z M 125.238 170.12 L 144.053 188.937 C 150.21 195.071 160.209 194.888 166.121 188.526 L 247.763 86.475 C 256.169 78.191 252.448 63.896 241.056 60.766 C 235.391 59.211 229.336 61.031 225.45 65.449 L 154.423 155.949 L 144.501 146.008 L 125.238 170.12 Z" style="fill: url('#gradient-0'); stroke: rgb(0, 0, 0); stroke-width: 2px;"/>
</svg>
